# xmcd
#
# Track frame offsets:
#	150
#	10980
#	22347
#	36067
#	47525
#	58342
#	71462
#	84922
#	96037
#	107040
#	120042
#	135635
#	151322
#	166500
#	179055
#	195777
#	210540
#	233175
#	245867
#	259942
#
# Disc length: 3652 seconds
#
# Revision: 1
# Processed by: cddbd v1.5PL3 Copyright (c) Steve Scherf et al.
# Submitted via: audiograbber 1.83.01
#
DISCID=060e4214
DTITLE=Various Artist - Texas Country
DYEAR=1976
DGENRE=Country
TTITLE0=Willie Nelson - Second Fiddle
TTITLE1=Willie Nelson - Night Life
TTITLE2=Willie Nelson - Funny How Time Slips Away
TTITLE3=Willie Nelson - Take Me As I Am (Or Let Me Go)
TTITLE4=Willie Nelson - Hello Walls
TTITLE5=Willie Nelson - Crazy
TTITLE6=Freddie Fender - Wasted Days And Wasted Nights
TTITLE7=Freddie Fender - When I Didn't Love You
TTITLE8=Freddie Fender - Mean Woman
TTITLE9=Freddie Fender - Holy One
TTITLE10=Asleep At The Wheel - Before You Stopped Loving Me
TTITLE11=Asleep At The Wheel - Cherokee Boogie
TTITLE12=Asleep At The Wheel - Drivin' Nails In My Coffin
TTITLE13=Asleep At The Wheel - I've Been Everywhere
TTITLE14=Asleep At The Wheel - Take Me Back To Tulsa
TTITLE15=Bob Wills and His Texas Playboys - Faded Love
TTITLE16=Bob Wills and His Texas Playboys - Milk Cow Blues
TTITLE17=Bob Wills and His Texas Playboys - My Shoes Keep Walking Back To You
TTITLE18=Bob Wills and His Texas Playboys - San Antonio Rose
TTITLE19=Bob Wills and His Texas Playboys - Stay A Little Longer
EXTD=
EXTT0=
EXTT1=
EXTT2=
EXTT3=
EXTT4=
EXTT5=
EXTT6=
EXTT7=
EXTT8=
EXTT9=
EXTT10=
EXTT11=
EXTT12=
EXTT13=
EXTT14=
EXTT15=
EXTT16=
EXTT17=
EXTT18=
EXTT19=
PLAYORDER=
